<?xml version="1.0" encoding="utf-8"?>
<!-- Generator: Adobe Illustrator 26.3.1, SVG Export Plug-In . SVG Version: 6.00 Build 0)  -->
<svg version="1.1" id="图层_1" xmlns="http://www.w3.org/2000/svg" xmlns:xlink="http://www.w3.org/1999/xlink" x="0px" y="0px"
	 viewBox="0 0 24 24" style="enable-background:new 0 0 24 24;" xml:space="preserve">
<g id="home">
	<g id="编组" transform="translate(1.000000, 2.000000)">
		<g id="直线">
			<path d="M22,10c-0.2,0-0.4-0.1-0.6-0.2L10.9,1.3L0.6,9.8c-0.4,0.4-1.1,0.3-1.4-0.1c-0.4-0.4-0.3-1.1,0.1-1.4l10.9-9
				c0.4-0.3,0.9-0.3,1.3,0l11.1,9c0.4,0.3,0.5,1,0.1,1.4C22.6,9.9,22.3,10,22,10z"/>
		</g>
		<g id="路径">
			<path d="M16.7,20H5.3c-2.1,0-3.8-1.8-3.8-4V7c0-0.6,0.4-1,1-1s1,0.4,1,1v9c0,1.1,0.8,2,1.8,2h11.3c1,0,1.8-0.9,1.8-2V7
				c0-0.6,0.4-1,1-1s1,0.4,1,1v9C20.5,18.2,18.8,20,16.7,20z"/>
		</g>
		<g id="路径_00000067200653628794420000000010067340289561976968_">
			<path d="M15,20h-2v-5.6c0-0.7-0.9-1.4-2-1.4s-2,0.6-2,1.4V20H7v-5.6c0-1.9,1.8-3.4,4-3.4c2.2,0,4,1.5,4,3.4V20z"/>
		</g>
	</g>
</g>
</svg>
